<svg height="2262" viewBox="90 200 300 10" width="2500" xmlns="http://www.w3.org/2000/svg">
    <path d="m328.8 183.4v94.6c0 3.5-1.8 6.6-4.6 8.4-4.6-10.1-14.8-17-26.6-17-12.5 0-23.1 7.8-27.3 18.8h-67.7c-5.6 0-10.1-4.5-10.1-10.1v-94.6c0-5.6 4.5-10.1 10.1-10.1h2.3c-.6 2.3-1 4.6-1 6.8 0 9.1 2 17.5 5.8 24.8 8.1 15.5 24.7 24.7 42 24.7 5.2 0 10.4-.8 15.5-2.5 6.5-2.2 13.1-5.3 19.6-9.3 19.2-11.8 20.9-28.8 18.6-39.1 2-1.4 3.7-3 5.3-4.5h9.9c.8.1 3.6.6 6 3.3 1.4 1.5 2.2 3.5 2.2 5.8z"
          fill="#fab613"/>
    <path d="m330.5 317.1c-3.2-.1-6.4-.2-9.5-.3 4.1-5.3 6.5-12 6.3-19.3 7.6-3.3 12.8-11 12.8-19.6v-19c0-3.8 2.9-6.9 6.7-7.3l55.9-4.7-55.9-4.7c-3.8-.3-6.7-3.5-6.7-7.3v-1.5c0-3.9 3.1-7.1 7-7.3l143.4-5.2-143.4-5.2c-3.9-.1-7-3.4-7-7.3 0-1.9.8-3.7 2-5s3-2.2 4.9-2.3l101.8-5-101.8-5c-3.9-.2-6.9-3.4-6.9-7.3v-1.1c0-11-8.9-19.8-19.8-19.8h-2.2c4.5-10.2 3.9-21.2 2-28.8 17.9-22.1 2.8-52.9 2.1-54.3l-1.4-2.7-1.3-2.6-5.2 2.9c-9.6 5.5-82.8 48.1-104.4 84.2h-7.3c-11.8 0-21.4 9.6-21.4 21.4v6.6c-1.8-.6-3.6-1-5.6-1h-28.5c-6.6 0-12.7 3.2-16.4 8.7l-18.7 28-7.7 4.7c-6.7 4-10.8 11.3-10.8 19.1v28.3c0 8.2 4.6 15.4 11.3 19.1 3.2 1.8 6.8 2.8 10.7 2.8h8.8c.2 10.1 5.7 19 13.7 24.1h.1c.3.2.6.3.9.5 2.6 1.6 5.5 2.8 8.5 3.4 3.3.7 6.5.9 9.5.6 22.6.9 45.2 1.1 67.8 1.2h17.6l17.6-.1 35.3-.6c11.8-.3 23.5-.5 35.3-.9s23.5-.7 35.3-1.3c23.5-1 47-2.2 70.5-4-23.5-1.8-47-3-70.5-4-11.9-.4-23.6-.7-35.4-1.1zm-160.5-79c0 2.4-2 4.4-4.4 4.4h-40.2c-3.5 0-5.6-4-3.6-6.9l14.6-21.4c.8-1.2 2.2-1.9 3.6-1.9h25.7c2.4 0 4.4 2 4.4 4.4v21.4zm144.3-147.3c3 8.9 6.8 26.4-4.6 38.3l-2.4 2.5s-28.7 22.1-52.8 35.1c-.2.1-.3.2-.3.2 1.6-.5 28.6-8.9 48.5-20.6 2.5-1.5 5-3 7.2-4.6 1.1 8.1.3 21.6-13.8 29.6 0 0-19.6 9.3-40.5 16-.7.2-1.2.4-1.4.4h-.1s9.3.3 20.6-1c6.5-.8 13.6-2.1 20-4.2 1 6 .4 17-13.7 25.6-5.7 3.5-11.6 6.3-17.3 8.2-15.1 5.1-31.7 0-40.8-11.7-1.2-1.5-2.3-3.2-3.2-5-3-5.7-4.5-12.3-4.5-19.6.1-25.3 67-70.2 99.1-89.2zm-54.3 224.8-17.6-.1c-5.9 0-11.8-.1-17.6 0-15.5 0-31.1.1-46.6.5 4-5.4 6.1-12.3 5.6-19.6 1.5-.9 2.8-2 4-3.3 3.8 3.8 9.2 6.3 15.1 6.3h65.4c0 2 .3 4 .7 6 .8 3.8 2.5 7.4 4.7 10.5zm44.5-45.8c-15.5-3.5-29.5 5.2-34.5 18.3h-67.3c-5.6 0-10.1-4.5-10.1-10.1v-94.6c0-5.6 4.6-10.1 10.1-10.1h2.3c-.6 2.3-1 4.6-1 6.8 0 9.1 2 17.5 5.8 24.8 5.1 9.8 13.6 17 23.6 21.1 3.4 1.4 7 2.4 10.7 3v33c0 1.3 1.5 2 2.5 1.2l12.2-10c1.1-.9 2.6-.9 3.7 0l12.2 10c1 .8 2.5.1 2.5-1.2v-38.9c3.2-1.5 6.5-3.3 9.7-5.2 19.2-11.8 21-28.8 18.6-39.1 2-1.4 3.7-3 5.3-4.6h9.9c.7.1 3.6.5 6.1 3.3 1.3 1.7 2 3.7 2 6v94.5c0 3.3-1.7 6.3-4.2 8.1-3.7-8.1-11.2-14.4-20.1-16.3z"
          fill="#2d3e51"/>
    <path d="m310 141.6c1 8.1.3 21.6-13.8 29.6 0 0-19.6 9.3-40.5 16-.7.2-1.2.4-1.4.4h-.1s9.3.3 20.6-1c6.5-.8 13.6-2.1 20-4.2 1 6 .4 17-13.7 25.6-5.7 3.5-11.6 6.3-17.3 8.2-15.1 5.1-31.7 0-40.8-11.7-1.2-1.5-2.3-3.2-3.2-4.9-3-5.7-4.5-12.3-4.5-19.6 0-25.2 66.6-69.9 98.8-89 .1 0 .1-.1.2-.1h.1c3 8.9 6.8 26.4-4.6 38.3l-2.4 2.5s-28.7 22.1-52.8 35.1c-.2.1-.3.2-.3.2 1.6-.5 28.6-8.9 48.5-20.6 2.5-1.6 4.9-3.2 7.2-4.8z"
          fill="#e6f4fb"/>
    <path d="m294.8 182.4c1 6 .4 17-13.7 25.7-5.7 3.5-11.6 6.3-17.3 8.2-15.1 5-31.7 0-40.8-11.8 1 .2 33.4 4.5 51.8-17.9 6.5-.7 13.6-2 20-4.2zm15.2-40.8c1.1 8.1.3 21.6-13.8 29.6 0 0-19.6 9.3-40.5 16 8-2.7 44.7-16.4 47.1-41 2.5-1.4 4.9-3 7.2-4.6zm-2.7-10s-28.7 22.1-52.8 35c5.5-3.3 67.1-40.7 59.8-75.9 3 8.9 6.8 26.4-4.6 38.3z"
          fill="#afc0d3"/>
    <path d="m328.8 221.2v56.7c0 3.5-1.8 6.6-4.6 8.4-4.6-10.1-14.8-17-26.6-17-12.5 0-23.1 7.8-27.3 18.8h-67.7c-5.6 0-10.1-4.5-10.1-10.1v-4.1c47.9-3.9 100.7-17.3 136.3-52.7z"
          fill="#2d3e51" opacity=".1"/>
    <path d="m223 204.5c9.1 11.8 25.7 16.8 40.8 11.8 5.7-1.9 11.6-4.7 17.3-8.2 14.2-8.7 14.7-19.7 13.7-25.7-6.4 2.2-13.6 3.5-20 4.2-11.4 1.4-20.7 1.1-20.7 1.1h.1c.2-.1.7-.2 1.4-.5 20.8-6.7 40.5-16 40.5-16 14.1-8 14.9-21.5 13.8-29.6-2.3 1.6-4.7 3.2-7.2 4.6-19.9 11.7-46.9 20.1-48.5 20.6 0 0 .2-.1.3-.2 24.1-13 52.8-35 52.8-35l2.4-2.5c11.5-11.9 7.7-29.4 4.6-38.3-32.1 19-99.1 63.9-99.1 89.2 0 7.3 1.5 13.9 4.5 19.6 1 1.7 2.1 3.4 3.3 4.9z"
          fill="none"/>
    <circle cx="297.7" cy="298.6" fill="#e6f4fb" r="18"/>
    <path d="m153.5 316.6c9.9 0 18-8.1 18-18 0-1.4-.2-2.7-.5-4-1.9-8.2-9.1-14-17.6-14s-15.9 6-17.6 14.2c-.2 1.3-.4 2.5-.4 3.8.1 9.9 8.1 18 18.1 18z"
          fill="#e6f4fb"/>
    <ellipse cx="154.2" cy="298.6" fill="#2d3e51" rx="7.4" ry="7.3"
             transform="matrix(.70709444 -.70711912 .70711912 .70709444 -165.979206 196.47264)"/>
    <path d="m299.4 291.4c-5.3-1.2-10 3.5-8.8 8.8.6 2.7 2.8 4.9 5.5 5.5 5.3 1.2 10-3.5 8.8-8.8-.7-2.7-2.8-4.9-5.5-5.5z"
          fill="#2d3e51"/>
    <path d="m170 216.7v21.3c0 2.4-2 4.4-4.4 4.4h-40.2c-3.5 0-5.6-4-3.6-6.9l14.6-21.4c.8-1.2 2.2-1.9 3.6-1.9h25.7c2.3.1 4.3 2.1 4.3 4.5z"
          fill="#e6f4fb"/>
    <path d="m314.1 91c-5.4 3.5-92.4 59.4-94.9 88.4-1.3 15.3 3.5 24.6 3.8 25.1-1.2-1.5-2.3-3.2-3.2-4.9-3-5.7-4.5-12.3-4.5-19.6 0-25.2 66.5-69.9 98.8-89z"
          fill="#fff"/>
</svg>