<svg height="2262" viewBox="30 74.5 450 349.1" width="2500" xmlns="http://www.w3.org/2000/svg">
    <path d="m328.8 183.4v94.6c0 3.5-1.8 6.6-4.6 8.4-4.6-10.1-14.8-17-26.6-17-12.5 0-23.1 7.8-27.3 18.8h-67.7c-5.6 0-10.1-4.5-10.1-10.1v-94.6c0-5.6 4.5-10.1 10.1-10.1h2.3c-.6 2.3-1 4.6-1 6.8 0 9.1 2 17.5 5.8 24.8 8.1 15.5 24.7 24.7 42 24.7 5.2 0 10.4-.8 15.5-2.5 6.5-2.2 13.1-5.3 19.6-9.3 19.2-11.8 20.9-28.8 18.6-39.1 2-1.4 3.7-3 5.3-4.5h9.9c.8.1 3.6.6 6 3.3 1.4 1.5 2.2 3.5 2.2 5.8z"
          fill="#fab613"/>
    <path d="m330.5 317.1c-3.2-.1-6.4-.2-9.5-.3 4.1-5.3 6.5-12 6.3-19.3 7.6-3.3 12.8-11 12.8-19.6v-19c0-3.8 2.9-6.9 6.7-7.3l55.9-4.7-55.9-4.7c-3.8-.3-6.7-3.5-6.7-7.3v-1.5c0-3.9 3.1-7.1 7-7.3l143.4-5.2-143.4-5.2c-3.9-.1-7-3.4-7-7.3 0-1.9.8-3.7 2-5s3-2.2 4.9-2.3l101.8-5-101.8-5c-3.9-.2-6.9-3.4-6.9-7.3v-1.1c0-11-8.9-19.8-19.8-19.8h-2.2c4.5-10.2 3.9-21.2 2-28.8 17.9-22.1 2.8-52.9 2.1-54.3l-1.4-2.7-1.3-2.6-5.2 2.9c-9.6 5.5-82.8 48.1-104.4 84.2h-7.3c-11.8 0-21.4 9.6-21.4 21.4v6.6c-1.8-.6-3.6-1-5.6-1h-28.5c-6.6 0-12.7 3.2-16.4 8.7l-18.7 28-7.7 4.7c-6.7 4-10.8 11.3-10.8 19.1v28.3c0 8.2 4.6 15.4 11.3 19.1 3.2 1.8 6.8 2.8 10.7 2.8h8.8c.2 10.1 5.7 19 13.7 24.1h.1c.3.2.6.3.9.5 2.6 1.6 5.5 2.8 8.5 3.4 3.3.7 6.5.9 9.5.6 22.6.9 45.2 1.1 67.8 1.2h17.6l17.6-.1 35.3-.6c11.8-.3 23.5-.5 35.3-.9s23.5-.7 35.3-1.3c23.5-1 47-2.2 70.5-4-23.5-1.8-47-3-70.5-4-11.9-.4-23.6-.7-35.4-1.1zm-160.5-79c0 2.4-2 4.4-4.4 4.4h-40.2c-3.5 0-5.6-4-3.6-6.9l14.6-21.4c.8-1.2 2.2-1.9 3.6-1.9h25.7c2.4 0 4.4 2 4.4 4.4v21.4zm144.3-147.3c3 8.9 6.8 26.4-4.6 38.3l-2.4 2.5s-28.7 22.1-52.8 35.1c-.2.1-.3.2-.3.2 1.6-.5 28.6-8.9 48.5-20.6 2.5-1.5 5-3 7.2-4.6 1.1 8.1.3 21.6-13.8 29.6 0 0-19.6 9.3-40.5 16-.7.2-1.2.4-1.4.4h-.1s9.3.3 20.6-1c6.5-.8 13.6-2.1 20-4.2 1 6 .4 17-13.7 25.6-5.7 3.5-11.6 6.3-17.3 8.2-15.1 5.1-31.7 0-40.8-11.7-1.2-1.5-2.3-3.2-3.2-5-3-5.7-4.5-12.3-4.5-19.6.1-25.3 67-70.2 99.1-89.2zm-54.3 224.8-17.6-.1c-5.9 0-11.8-.1-17.6 0-15.5 0-31.1.1-46.6.5 4-5.4 6.1-12.3 5.6-19.6 1.5-.9 2.8-2 4-3.3 3.8 3.8 9.2 6.3 15.1 6.3h65.4c0 2 .3 4 .7 6 .8 3.8 2.5 7.4 4.7 10.5zm44.5-45.8c-15.5-3.5-29.5 5.2-34.5 18.3h-67.3c-5.6 0-10.1-4.5-10.1-10.1v-94.6c0-5.6 4.6-10.1 10.1-10.1h2.3c-.6 2.3-1 4.6-1 6.8 0 9.1 2 17.5 5.8 24.8 5.1 9.8 13.6 17 23.6 21.1 3.4 1.4 7 2.4 10.7 3v33c0 1.3 1.5 2 2.5 1.2l12.2-10c1.1-.9 2.6-.9 3.7 0l12.2 10c1 .8 2.5.1 2.5-1.2v-38.9c3.2-1.5 6.5-3.3 9.7-5.2 19.2-11.8 21-28.8 18.6-39.1 2-1.4 3.7-3 5.3-4.6h9.9c.7.1 3.6.5 6.1 3.3 1.3 1.7 2 3.7 2 6v94.5c0 3.3-1.7 6.3-4.2 8.1-3.7-8.1-11.2-14.4-20.1-16.3z"
          fill="#2d3e51"/>
    <path d="m310 141.6c1 8.1.3 21.6-13.8 29.6 0 0-19.6 9.3-40.5 16-.7.2-1.2.4-1.4.4h-.1s9.3.3 20.6-1c6.5-.8 13.6-2.1 20-4.2 1 6 .4 17-13.7 25.6-5.7 3.5-11.6 6.3-17.3 8.2-15.1 5.1-31.7 0-40.8-11.7-1.2-1.5-2.3-3.2-3.2-4.9-3-5.7-4.5-12.3-4.5-19.6 0-25.2 66.6-69.9 98.8-89 .1 0 .1-.1.2-.1h.1c3 8.9 6.8 26.4-4.6 38.3l-2.4 2.5s-28.7 22.1-52.8 35.1c-.2.1-.3.2-.3.2 1.6-.5 28.6-8.9 48.5-20.6 2.5-1.6 4.9-3.2 7.2-4.8z"
          fill="#e6f4fb"/>
    <path d="m294.8 182.4c1 6 .4 17-13.7 25.7-5.7 3.5-11.6 6.3-17.3 8.2-15.1 5-31.7 0-40.8-11.8 1 .2 33.4 4.5 51.8-17.9 6.5-.7 13.6-2 20-4.2zm15.2-40.8c1.1 8.1.3 21.6-13.8 29.6 0 0-19.6 9.3-40.5 16 8-2.7 44.7-16.4 47.1-41 2.5-1.4 4.9-3 7.2-4.6zm-2.7-10s-28.7 22.1-52.8 35c5.5-3.3 67.1-40.7 59.8-75.9 3 8.9 6.8 26.4-4.6 38.3z"
          fill="#afc0d3"/>
    <path d="m328.8 221.2v56.7c0 3.5-1.8 6.6-4.6 8.4-4.6-10.1-14.8-17-26.6-17-12.5 0-23.1 7.8-27.3 18.8h-67.7c-5.6 0-10.1-4.5-10.1-10.1v-4.1c47.9-3.9 100.7-17.3 136.3-52.7z"
          fill="#2d3e51" opacity=".1"/>
    <path d="m223 204.5c9.1 11.8 25.7 16.8 40.8 11.8 5.7-1.9 11.6-4.7 17.3-8.2 14.2-8.7 14.7-19.7 13.7-25.7-6.4 2.2-13.6 3.5-20 4.2-11.4 1.4-20.7 1.1-20.7 1.1h.1c.2-.1.7-.2 1.4-.5 20.8-6.7 40.5-16 40.5-16 14.1-8 14.9-21.5 13.8-29.6-2.3 1.6-4.7 3.2-7.2 4.6-19.9 11.7-46.9 20.1-48.5 20.6 0 0 .2-.1.3-.2 24.1-13 52.8-35 52.8-35l2.4-2.5c11.5-11.9 7.7-29.4 4.6-38.3-32.1 19-99.1 63.9-99.1 89.2 0 7.3 1.5 13.9 4.5 19.6 1 1.7 2.1 3.4 3.3 4.9z"
          fill="none"/>
    <circle cx="297.7" cy="298.6" fill="#e6f4fb" r="18"/>
    <path d="m153.5 316.6c9.9 0 18-8.1 18-18 0-1.4-.2-2.7-.5-4-1.9-8.2-9.1-14-17.6-14s-15.9 6-17.6 14.2c-.2 1.3-.4 2.5-.4 3.8.1 9.9 8.1 18 18.1 18z"
          fill="#e6f4fb"/>
    <ellipse cx="154.2" cy="298.6" fill="#2d3e51" rx="7.4" ry="7.3"
             transform="matrix(.70709444 -.70711912 .70711912 .70709444 -165.979206 196.47264)"/>
    <path d="m299.4 291.4c-5.3-1.2-10 3.5-8.8 8.8.6 2.7 2.8 4.9 5.5 5.5 5.3 1.2 10-3.5 8.8-8.8-.7-2.7-2.8-4.9-5.5-5.5z"
          fill="#2d3e51"/>
    <path d="m170 216.7v21.3c0 2.4-2 4.4-4.4 4.4h-40.2c-3.5 0-5.6-4-3.6-6.9l14.6-21.4c.8-1.2 2.2-1.9 3.6-1.9h25.7c2.3.1 4.3 2.1 4.3 4.5z"
          fill="#e6f4fb"/>
    <path d="m314.1 91c-5.4 3.5-92.4 59.4-94.9 88.4-1.3 15.3 3.5 24.6 3.8 25.1-1.2-1.5-2.3-3.2-3.2-4.9-3-5.7-4.5-12.3-4.5-19.6 0-25.2 66.5-69.9 98.8-89z"
          fill="#fff"/>
    <g id="svgGroup" transform="translate(60, 350)" stroke-linecap="round" fill-rule="evenodd" font-size="9pt" stroke="#000000" stroke-width="0" fill="#f0b831" style="stroke:#000000;stroke-width:0;fill:#f0b831"><path d="M 27.28 27.2 L 17.6 63.36 L 0 63.36 L 5.76 3.84 L 19.76 3.84 L 13.84 41.76 L 12.64 48.48 L 12.8 48.48 L 14.4 41.76 L 25.12 3.84 L 39.92 3.84 L 34.48 41.76 L 33.2 48.48 L 33.36 48.48 L 34.96 41.76 L 45.2 3.84 L 59.2 3.84 L 39.76 63.36 L 22.16 63.36 L 27.76 27.2 L 28.48 23.2 L 28.32 23.2 L 27.28 27.2 Z M 167.2 25.44 L 159.12 63.36 L 145.76 63.36 L 153.44 27.12 A 2.348 2.348 0 0 0 153.489 26.858 Q 153.507 26.717 153.515 26.554 A 5.061 5.061 0 0 0 153.52 26.32 Q 153.52 25.2 152.72 25.2 Q 151.68 25.2 151.2 27.12 L 143.52 63.36 L 130.16 63.36 L 143.12 2.08 L 156.32 2.08 L 153.2 17.12 L 152.56 18.96 L 152.8 18.96 A 12.608 12.608 0 0 1 155.22 16.421 A 8.991 8.991 0 0 1 160.88 14.48 A 9.538 9.538 0 0 1 163.602 14.834 Q 166.613 15.732 167.401 18.905 A 10.542 10.542 0 0 1 167.68 21.44 A 16.336 16.336 0 0 1 167.536 23.548 A 21.585 21.585 0 0 1 167.2 25.44 Z M 293.12 25.44 L 285.04 63.36 L 271.68 63.36 L 279.36 27.12 A 2.348 2.348 0 0 0 279.409 26.858 Q 279.427 26.717 279.435 26.554 A 5.061 5.061 0 0 0 279.44 26.32 Q 279.44 25.2 278.64 25.2 Q 277.6 25.2 277.12 27.12 L 269.44 63.36 L 256.08 63.36 L 269.04 2.08 L 282.24 2.08 L 279.12 17.12 L 278.48 18.96 L 278.72 18.96 A 12.608 12.608 0 0 1 281.14 16.421 A 8.991 8.991 0 0 1 286.8 14.48 A 9.538 9.538 0 0 1 289.522 14.834 Q 292.533 15.732 293.321 18.905 A 10.542 10.542 0 0 1 293.6 21.44 A 16.336 16.336 0 0 1 293.456 23.548 A 21.585 21.585 0 0 1 293.12 25.44 Z M 226.72 50.08 L 228.48 41.92 L 242 41.92 L 240.32 50.08 A 6.402 6.402 0 0 0 240.16 50.727 Q 240.08 51.15 240.08 51.52 A 1.617 1.617 0 0 0 240.146 52.002 Q 240.31 52.529 240.888 52.669 A 2.009 2.009 0 0 0 241.36 52.72 Q 241.92 52.72 242.32 52.36 A 1.884 1.884 0 0 0 242.842 51.56 A 2.294 2.294 0 0 0 242.88 51.44 L 244.64 43.2 A 1.996 1.996 0 0 0 244.679 42.995 Q 244.72 42.7 244.72 42.24 A 2.328 2.328 0 0 0 244.266 40.872 Q 244.035 40.545 243.687 40.241 A 4.646 4.646 0 0 0 243.64 40.2 A 9.41 9.41 0 0 0 242.988 39.701 Q 241.884 38.918 239.749 37.705 A 96.252 96.252 0 0 0 239.28 37.44 A 31.879 31.879 0 0 1 237.017 36.034 Q 234.847 34.547 233.685 33.093 A 8.704 8.704 0 0 1 233.52 32.88 A 8.383 8.383 0 0 1 231.894 28.613 A 10.775 10.775 0 0 1 231.84 27.52 Q 231.84 25.84 232.32 23.68 L 233.92 15.92 A 17.569 17.569 0 0 1 236.017 10.628 A 15.068 15.068 0 0 1 240.2 6.16 Q 245.04 2.72 251.84 2.72 A 20.995 20.995 0 0 1 255.353 2.995 Q 258.785 3.579 260.96 5.4 Q 264.16 8.08 264.16 12.96 A 13.056 13.056 0 0 1 264.105 14.104 Q 263.989 15.421 263.625 17.164 A 41.17 41.17 0 0 1 263.6 17.28 L 262 24.64 L 248.96 24.64 L 250.56 17.28 Q 250.72 16.32 250.72 16.08 A 2.474 2.474 0 0 0 250.659 15.507 Q 250.475 14.735 249.728 14.593 A 1.963 1.963 0 0 0 249.36 14.56 A 1.89 1.89 0 0 0 248.757 14.649 Q 248.179 14.843 247.944 15.461 A 2.222 2.222 0 0 0 247.84 15.84 L 246.32 23.2 A 1.19 1.19 0 0 0 246.28 23.364 Q 246.24 23.583 246.24 23.92 Q 246.24 25.04 247 25.88 A 6.171 6.171 0 0 0 247.644 26.489 Q 247.996 26.78 248.436 27.075 A 14.913 14.913 0 0 0 249.28 27.6 Q 254.083 30.038 256.349 32.379 A 10.958 10.958 0 0 1 256.84 32.92 Q 259.04 35.52 259.04 39.04 Q 259.04 40.727 258.636 42.818 A 29.222 29.222 0 0 1 258.56 43.2 L 256.72 51.92 Q 255.52 57.68 250.56 61.08 A 19.388 19.388 0 0 1 241.537 64.34 A 24.617 24.617 0 0 1 238.88 64.48 Q 227.28 64.48 226.326 56.057 A 14.017 14.017 0 0 1 226.24 54.48 Q 226.24 52.48 226.72 50.08 Z M 202.96 38.4 L 204.4 31.6 L 214.64 31.6 L 213.2 38.24 A 59.035 59.035 0 0 1 211.037 46.004 Q 209.535 50.196 207.473 53.62 A 35.891 35.891 0 0 1 207.04 54.32 A 4.773 4.773 0 0 0 208.554 54.56 A 5.422 5.422 0 0 0 208.56 54.56 L 209.84 54.56 L 207.76 64.4 L 206.48 64.4 Q 202.528 64.4 199.853 62.833 A 9.429 9.429 0 0 1 198.96 62.24 A 18.243 18.243 0 0 1 191.643 64.401 A 22.16 22.16 0 0 1 189.76 64.48 A 22.593 22.593 0 0 1 186.42 64.25 Q 182.914 63.724 180.8 62 A 8.055 8.055 0 0 1 177.789 56.091 A 11.147 11.147 0 0 1 177.76 55.28 A 12.681 12.681 0 0 1 177.861 53.646 A 10.253 10.253 0 0 1 178.08 52.48 L 179.84 44.4 A 19.728 19.728 0 0 1 186.781 33.128 A 26.729 26.729 0 0 1 189.04 31.44 Q 188.644 28.143 188.575 26.042 A 25.531 25.531 0 0 1 188.56 25.2 Q 188.56 22.48 189.12 20 L 190.32 14.32 Q 191.44 9.2 195.56 5.96 A 15.129 15.129 0 0 1 204.266 2.751 A 19.151 19.151 0 0 1 205.36 2.72 A 19.054 19.054 0 0 1 208.09 2.902 Q 209.461 3.101 210.564 3.518 A 7.43 7.43 0 0 1 212.84 4.84 Q 215.28 6.96 215.28 10.4 A 12.681 12.681 0 0 1 215.179 12.034 A 10.253 10.253 0 0 1 214.96 13.2 Q 213.52 20.32 210.08 24.92 A 28.725 28.725 0 0 1 206.473 28.861 Q 204.53 30.643 202.078 32.353 A 54.894 54.894 0 0 1 200.08 33.68 A 18.998 18.998 0 0 0 200.131 34.088 Q 200.211 34.686 200.373 35.724 A 197.34 197.34 0 0 0 200.48 36.4 Q 200.92 39.205 201.322 41.405 A 115.497 115.497 0 0 0 201.68 43.28 Q 202.32 41.36 202.96 38.4 Z M 103.44 48.64 L 107.44 30.08 A 28.861 28.861 0 0 1 109.004 25.041 Q 110.181 22.247 111.893 20.175 A 15.832 15.832 0 0 1 113.56 18.44 A 15.33 15.33 0 0 1 121.187 14.811 A 21.499 21.499 0 0 1 125.04 14.48 Q 129.053 14.48 131.708 16.052 A 8.985 8.985 0 0 1 133.16 17.12 Q 135.761 19.471 136.045 23.917 A 17.598 17.598 0 0 1 136.08 25.04 A 23.473 23.473 0 0 1 135.554 29.92 A 25.827 25.827 0 0 1 135.52 30.08 L 134.16 36.32 L 121.68 36.32 L 123.6 27.28 Q 123.76 26.32 123.76 26.08 A 1.403 1.403 0 0 0 123.723 25.743 Q 123.613 25.302 123.179 25.219 A 1.17 1.17 0 0 0 122.96 25.2 A 1.166 1.166 0 0 0 121.996 25.711 Q 121.634 26.19 121.44 27.12 L 116.24 51.68 Q 116.08 52.24 116.08 52.96 Q 116.08 53.749 116.659 53.831 A 1.012 1.012 0 0 0 116.8 53.84 A 1.122 1.122 0 0 0 117.671 53.412 Q 118.134 52.878 118.4 51.68 L 120.48 42.08 L 132.88 42.08 L 131.44 48.72 A 27.948 27.948 0 0 1 129.222 55.395 Q 125.439 63.046 117.212 64.196 A 22.032 22.032 0 0 1 114.16 64.4 A 19.162 19.162 0 0 1 110.962 64.151 Q 107.615 63.584 105.64 61.72 A 8.593 8.593 0 0 1 103.287 57.742 Q 102.891 56.359 102.817 54.7 A 17.468 17.468 0 0 1 102.8 53.92 Q 102.8 52.179 103.187 49.954 A 37.858 37.858 0 0 1 103.44 48.64 Z M 82.4 28.08 L 74.96 63.36 L 61.68 63.36 L 62 61.84 L 62.64 60 L 62.32 60 A 13.478 13.478 0 0 1 60.153 62.363 A 8.468 8.468 0 0 1 54.56 64.48 Q 51.2 64.48 49.36 62.64 Q 47.696 60.976 47.537 58.004 A 12.036 12.036 0 0 1 47.52 57.36 Q 47.52 56 47.92 54 L 49.6 46.32 A 15.574 15.574 0 0 1 51.495 41.372 Q 54.051 37.223 59.267 36.186 A 19.355 19.355 0 0 1 63.04 35.84 Q 64.96 35.84 67.28 36.48 L 69.28 27.28 Q 69.342 26.969 69.356 26.562 A 7.117 7.117 0 0 0 69.36 26.32 Q 69.36 25.2 68.56 25.2 Q 67.53 25.2 67.109 26.892 A 6.794 6.794 0 0 0 67.04 27.2 L 65.76 32.88 L 52.8 32.88 L 53.84 27.92 A 20.608 20.608 0 0 1 55.565 23.038 A 15.536 15.536 0 0 1 59.6 18 Q 63.92 14.48 70.8 14.48 Q 82.88 14.48 82.88 23.92 Q 82.88 25.607 82.476 27.698 A 29.222 29.222 0 0 1 82.4 28.08 Z M 338.8 30.24 L 334.8 49.2 Q 333.348 56.324 331.058 59.92 A 12.165 12.165 0 0 1 330.32 60.96 Q 327.52 64.48 322.8 64.48 A 7.235 7.235 0 0 1 320.841 64.225 A 5.881 5.881 0 0 1 318.96 63.32 A 5.463 5.463 0 0 1 317.07 60.836 A 7.221 7.221 0 0 1 316.8 60 L 316.56 60 L 316.4 62.24 L 313.12 77.44 L 299.84 77.44 L 312.96 15.6 L 326.16 15.6 L 325.92 17.12 L 325.28 18.96 L 325.52 18.96 A 10.735 10.735 0 0 1 327.57 16.651 A 9.556 9.556 0 0 1 329.04 15.64 Q 331.12 14.48 333.44 14.48 A 9.701 9.701 0 0 1 335.236 14.635 Q 337.183 15.003 338.28 16.24 Q 339.743 17.891 339.834 21.511 A 19.463 19.463 0 0 1 339.84 22 A 27.808 27.808 0 0 1 339.694 24.734 Q 339.557 26.116 339.291 27.685 A 61.607 61.607 0 0 1 338.8 30.24 Z M 106.72 26.24 L 100.8 26.24 L 96.08 48.4 Q 95.88 49.266 95.847 49.966 A 5.749 5.749 0 0 0 95.84 50.24 Q 95.84 51.939 97.168 52.195 A 2.711 2.711 0 0 0 97.68 52.24 A 14.952 14.952 0 0 0 99.376 52.139 A 19.376 19.376 0 0 0 100.8 51.92 L 99.76 62.56 Q 95.44 64.48 90.16 64.48 A 13.338 13.338 0 0 1 86.776 64.089 Q 82.452 62.952 81.632 58.504 A 12.501 12.501 0 0 1 81.44 56.24 Q 81.44 54.24 81.92 51.84 L 87.36 26.24 L 84.24 26.24 L 86.48 15.6 L 89.6 15.6 L 91.68 6 L 105.04 6 L 103.04 15.6 L 108.88 15.6 L 106.72 26.24 Z M 310.72 15.6 L 300.64 63.36 L 287.28 63.36 L 297.36 15.6 L 310.72 15.6 Z M 320.88 51.76 L 326.16 26.96 Q 326.303 26.388 326.318 26.136 A 0.929 0.929 0 0 0 326.32 26.08 A 1.267 1.267 0 0 0 326.276 25.732 Q 326.124 25.2 325.44 25.2 A 1.226 1.226 0 0 0 324.402 25.765 Q 324.093 26.197 323.92 26.96 L 318.64 51.76 A 1.996 1.996 0 0 0 318.601 51.965 Q 318.56 52.26 318.56 52.72 Q 318.56 53.76 319.36 53.76 Q 320.39 53.76 320.811 52.069 A 6.794 6.794 0 0 0 320.88 51.76 Z M 302.959 13.44 A 14.876 14.876 0 0 0 304.56 13.52 A 15.581 15.581 0 0 0 306.129 13.445 Q 307.289 13.327 308.246 13.027 A 6.802 6.802 0 0 0 310.36 11.96 Q 312.4 10.4 313.2 6.8 A 52.442 52.442 0 0 0 313.306 6.196 Q 313.463 5.275 313.505 4.783 A 3.668 3.668 0 0 0 313.52 4.48 Q 313.52 2.08 312.04 1.04 Q 310.56 0 307.44 0 Q 303.68 0 301.64 1.6 Q 300.253 2.688 299.44 4.699 A 13.295 13.295 0 0 0 298.8 6.8 A 17.915 17.915 0 0 0 298.728 7.208 Q 298.645 7.718 298.603 8.173 A 9.445 9.445 0 0 0 298.56 9.04 A 7.34 7.34 0 0 0 298.575 9.514 Q 298.619 10.203 298.798 10.766 A 3.258 3.258 0 0 0 300 12.48 A 3.696 3.696 0 0 0 300.307 12.679 Q 301.308 13.261 302.959 13.44 Z M 64.32 50.48 L 66.24 41.28 A 2.672 2.672 0 0 0 65.891 41.134 Q 65.698 41.069 65.519 41.049 A 1.421 1.421 0 0 0 65.36 41.04 Q 63.84 41.04 63.2 44.16 L 61.52 51.76 L 61.36 52.8 A 1.634 1.634 0 0 0 61.404 53.199 Q 61.535 53.718 62.054 53.817 A 1.421 1.421 0 0 0 62.32 53.84 Q 63.04 53.84 63.48 53.08 A 4.019 4.019 0 0 0 63.718 52.584 Q 64.029 51.817 64.32 50.48 Z M 201.84 14 L 200.24 21.28 A 5.285 5.285 0 0 0 200.079 21.902 Q 199.897 22.803 199.84 24.24 Q 201.52 22.48 202.44 20.24 Q 203.271 18.217 204.069 14.757 A 75.632 75.632 0 0 0 204.24 14 A 1.307 1.307 0 0 0 204.286 13.816 Q 204.303 13.719 204.311 13.605 A 3.266 3.266 0 0 0 204.32 13.36 Q 204.32 12.387 203.595 12.259 A 1.357 1.357 0 0 0 203.36 12.24 A 1.27 1.27 0 0 0 202.219 12.902 Q 202.067 13.15 201.962 13.491 A 4.391 4.391 0 0 0 201.84 14 Z M 190.88 43.52 L 189.28 50.72 A 28.557 28.557 0 0 0 189.218 51.109 Q 189.137 51.638 189.123 51.9 A 1.879 1.879 0 0 0 189.12 52 Q 189.12 54.64 191.84 54.64 Q 192.72 54.64 193.52 54.4 A 42.465 42.465 0 0 1 192.399 50.785 Q 191.869 48.789 191.421 46.469 A 89.217 89.217 0 0 1 190.88 43.36 L 190.88 43.52 Z"/></g>
</svg>